Motion_pl13
version=1
nRows=10
nColumns=43
inDegrees=yes
endheader
time	pelvis_tilt	pelvis_list	pelvis_rotation	pelvis_tx	pelvis_ty	pelvis_tz	hip_flexion_r	hip_adduction_r	hip_rotation_r	knee_angle_r	ankle_angle_r	subtalar_angle_r	mtp_angle_r	hip_flexion_l	hip_adduction_l	hip_rotation_l	knee_angle_l	ankle_angle_l	subtalar_angle_l	mtp_angle_l	lumbar_extension	lumbar_bending	lumbar_rotation	neck_flexion	neck_lateral_bending	neck_rotation	arm_flex_r	arm_add_r	arm_rot_r	elbow_flex_r	pro_sup_r	wrist_flex_r	wrist_dev_r	hand_finger_flex_r	arm_flex_l	arm_add_l	arm_rot_l	elbow_flex_l	pro_sup_l	wrist_flex_l	wrist_dev_l	hand_finger_flex_l
      0.81750000	     -0.83725303	      1.47925484	     87.42727308	      0.06080935	      1.75301615	      1.93167351	     85.86239464	     -4.56070697	      3.45022329	   -151.11525418	     24.62213996	      6.08459238	     11.42315565	     84.35411707	     -8.61103541	     10.67042461	   -150.99553258	     21.52791571	     23.36879218	     23.93308042	    -63.98489757	     -4.12994567	      1.30589995	     31.92700388	      2.48804278	     -5.07159144	     17.05917304	    -18.04520446	    -13.39912825	     70.34405187	    103.46207885	     -0.87837646	    -19.91908342	    -14.02695981	     23.84986422	    -16.70216833	     -6.43834260	     60.83620636	    106.15181951	    -15.27097241	    -15.13632551	      7.08146075
      0.82000000	     -0.85776486	      1.42476792	     87.44030746	      0.06095818	      1.75267625	      1.93080602	     85.86030186	     -4.56238102	      3.46744984	   -151.22465912	     24.62224080	      6.08930563	     11.42317483	     84.35222605	     -8.59882174	     10.71031269	   -151.06798871	     21.52444224	     23.36437015	     23.93623403	    -63.91129000	     -4.16495949	      1.31038537	     31.88731946	      2.50083356	     -5.07605159	     17.42115137	    -18.12220036	    -13.42019515	     70.53445006	    103.46370614	     -0.89141782	    -19.95290050	    -14.01894468	     24.21207158	    -16.72015911	     -6.47701221	     61.06344723	    106.16614736	    -15.28442173	    -15.15526347	      7.06093595
      0.82250000	     -0.87353070	      1.32452204	     87.44190146	      0.06107727	      1.75297249	      1.93009945	     85.80398166	     -4.52656901	      3.48875930	   -151.17087070	     24.65620478	      6.18598280	     11.41136015	     84.29031817	     -8.57303872	     10.71119888	   -150.99858777	     21.52778741	     23.43359578	     23.96943462	    -63.93063681	     -4.24229601	      1.25248100	     32.29034661	      2.76116069	     -5.19937539	     17.95225705	    -18.47678908	    -13.08088475	     70.69910543	    103.66584384	     -0.86601652	    -19.81731586	    -13.86490806	     24.59744044	    -16.82234459	     -6.52266904	     61.54156278	    106.39548384	    -15.31781387	    -14.73296085	      6.84650700
      0.82500000	     -0.89328297	      1.27130177	     87.45072364	      0.06122676	      1.75261852	      1.92920416	     85.80135869	     -4.53192874	      3.50671551	   -151.28669216	     24.65601254	      6.19166456	     11.41143754	     84.28613480	     -8.56498461	     10.76119087	   -151.07621533	     21.52906141	     23.43027730	     23.97349059	    -63.85617920	     -4.27876539	      1.24980852	     32.24148640	      2.76477956	     -5.19780123	     18.34012864	    -18.53547629	    -13.11005345	     70.90501337	    103.66827178	     -0.88234119	    -19.85226920	    -13.86201418	     24.98279447	    -16.84177816	     -6.55885483	     61.78470221	    106.40598468	    -15.33426895	    -14.74390784	      6.82143075
      0.82750000	     -0.89796102	      1.32078000	     87.43675931	      0.06147313	      1.75319506	      1.92844628	     85.54609875	     -4.44811813	      3.53783008	   -151.23846370	     24.74125588	      6.41131880	     11.37666697	     84.01454606	     -8.57206422	     10.83095028	   -150.99720149	     21.64994144	     23.68393972	     24.08764972	    -64.05902691	     -4.35325849	      1.05089927	     32.64305381	      2.99112340	     -5.16004943	     19.00568384	    -18.69532152	    -12.75493516	     71.16335422	    104.07548636	     -1.02282814	    -19.52844136	    -13.66621777	     25.15724412	    -17.13935467	     -6.61295611	     62.81448053	    106.78261268	    -15.49640843	    -13.46384179	      6.10063962
      0.83000000	     -0.91119723	      1.24970797	     87.43691952	      0.06155707	      1.75284530	      1.92748807	     85.55999570	     -4.48164231	      3.55210896	   -151.34617041	     24.73616753	      6.41434930	     11.37621144	     84.01936892	     -8.58290371	     10.87554931	   -151.08320847	     21.64702663	     23.68192324	     24.09119112	    -63.96715266	     -4.38315475	      1.04684465	     32.61194903	      3.00010753	     -5.15478930	     19.42777247	    -18.75648553	    -12.77291869	     71.36650255	    104.07539771	     -1.02960927	    -19.56795115	    -13.66400199	     25.59622674	    -17.15910943	     -6.64130461	     63.00962421	    106.78353154	    -15.50294150	    -13.48661804	      6.07810723
      0.83250000	     -0.91548362	      1.06012324	     87.44657424	      0.06171221	      1.75309897	      1.92670918	     85.57863169	     -4.44270404	      3.53387126	   -151.26647931	     24.71859534	      6.45480360	     11.37020639	     84.02810116	     -8.53562305	     10.90311602	   -150.97787930	     21.66869136	     23.71781303	     24.10313757	    -63.85869263	     -4.41388342	      1.02042471	     32.74749275	      3.06115013	     -5.14597778	     19.97266733	    -18.89642055	    -12.65274550	     71.54465342	    104.12167631	     -0.99423503	    -19.56545869	    -13.63572468	     26.19297901	    -17.24392692	     -6.58691170	     63.14460610	    106.80089294	    -15.48733954	    -13.40642557	      6.00415904
      0.83500000	     -0.91642761	      0.91765377	     87.44882184	      0.06178153	      1.75314174	      1.92579887	     85.59188252	     -4.43828550	      3.51900152	   -151.27385950	     24.71285886	      6.50415594	     11.36418614	     84.03121037	     -8.53814092	     10.93955090	   -150.96734635	     21.72278692	     23.78270643	     24.12294867	    -63.76407537	     -4.43133744	      0.99700412	     32.99752517	      3.13055314	     -5.13054760	     20.53651048	    -19.05066802	    -12.48855947	     71.69512166	    104.17318272	     -0.95999945	    -19.54118053	    -13.60774985	     26.78598709	    -17.36682162	     -6.44722389	     63.24389850	    106.82011646	    -15.48030833	    -13.26364221	      5.88957438
      0.83750000	     -0.91614020	      0.84852402	     87.44426509	      0.06175734	      1.75272457	      1.92466212	     85.60163246	     -4.46570502	      3.53367110	   -151.40822930	     24.71199098	      6.51039407	     11.36430794	     84.01895182	     -8.56080666	     10.97458840	   -151.08733438	     21.72869788	     23.79370052	     24.12758488	    -63.65968940	     -4.43946806	      0.99093371	     32.99450897	      3.14282366	     -5.12640593	     20.98591587	    -19.10822563	    -12.49699894	     71.91806318	    104.16854064	     -0.96952894	    -19.58225447	    -13.60952229	     27.24158359	    -17.40162988	     -6.44843589	     63.43080942	    106.81889256	    -15.49568719	    -13.27201874	      5.85942913
      0.84000000	     -0.90617786	      0.63790407	     87.44580728	      0.06187205	      1.75304764	      1.92373079	     85.62143272	     -4.44384246	      3.49007214	   -151.33220059	     24.71344624	      6.59137064	     11.35296368	     84.00979758	     -8.55866772	     11.00562854	   -150.99808528	     21.83061518	     23.92580844	     24.15058214	    -63.53185023	     -4.43549327	      0.97737664	     33.39173037	      3.15587784	     -5.07483751	     21.63304995	    -19.31313890	    -12.25404468	     72.03719015	    104.19250175	     -0.95863419	    -19.53076618	    -13.59334986	     27.99950462	    -17.57935643	     -6.16278264	     63.36688864	    106.83308051	    -15.54688985	    -13.01110504	      5.66513693
